<?xml version="1.0" encoding="UTF-8" standalone="no"?>
<!-- Generator: Adobe Illustrator 19.0.0, SVG Export Plug-In . SVG Version: 6.00 Build 0)  -->

<svg
   xmlns:dc="http://purl.org/dc/elements/1.1/"
   xmlns:cc="http://creativecommons.org/ns#"
   xmlns:rdf="http://www.w3.org/1999/02/22-rdf-syntax-ns#"
   xmlns:svg="http://www.w3.org/2000/svg"
   xmlns="http://www.w3.org/2000/svg"
   xmlns:sodipodi="http://sodipodi.sourceforge.net/DTD/sodipodi-0.dtd"
   xmlns:inkscape="http://www.inkscape.org/namespaces/inkscape"
   version="1.1"
   id="Capa_1"
   x="0px"
   y="0px"
   viewBox="0 0 473.912 473.912"
   style="enable-background:new 0 0 473.912 473.912;"
   xml:space="preserve"
   sodipodi:docname="opt.svg"
   inkscape:version="0.92.2 (5c3e80d, 2017-08-06)"><metadata
     id="metadata61"><rdf:RDF><cc:Work
         rdf:about=""><dc:format>image/svg+xml</dc:format><dc:type
           rdf:resource="http://purl.org/dc/dcmitype/StillImage" /></cc:Work></rdf:RDF></metadata><defs
     id="defs59" /><sodipodi:namedview
     pagecolor="#ffffff"
     bordercolor="#666666"
     borderopacity="1"
     objecttolerance="10"
     gridtolerance="10"
     guidetolerance="10"
     inkscape:pageopacity="0"
     inkscape:pageshadow="2"
     inkscape:window-width="1612"
     inkscape:window-height="873"
     id="namedview57"
     showgrid="false"
     inkscape:zoom="0.49798276"
     inkscape:cx="-153.61978"
     inkscape:cy="127.67984"
     inkscape:window-x="0"
     inkscape:window-y="0"
     inkscape:window-maximized="0"
     inkscape:current-layer="Capa_1" /><g
     id="g6"
     style="stroke:#000000;stroke-opacity:1;stroke-width:5;stroke-miterlimit:4;stroke-dasharray:none"><path
       style="fill:#44C4A1;stroke:#000000;stroke-opacity:1;stroke-width:5;stroke-miterlimit:4;stroke-dasharray:none"
       d="M452.371,212.515H151.259c-10.345,0-18.732-8.386-18.732-18.732v-41.537   c0-10.345,8.386-18.732,18.732-18.732h301.112c10.345,0,18.732,8.386,18.732,18.732v41.537   C471.102,204.128,462.716,212.515,452.371,212.515z"
       id="path2" /><path
       style="fill:#44C4A1;stroke:#000000;stroke-opacity:1;stroke-width:5;stroke-miterlimit:4;stroke-dasharray:none"
       d="M47.953,127.871c-3.117,0-6.159,0.316-9.098,0.917c-1.47,0.301-2.912,0.673-4.326,1.112   c-2.827,0.88-5.535,2.029-8.094,3.419c-3.838,2.085-7.34,4.71-10.403,7.774c-3.063,3.064-5.689,6.565-7.774,10.403   c-0.695,1.279-1.33,2.596-1.901,3.946c-1.142,2.7-2.029,5.535-2.63,8.474s-0.917,5.981-0.917,9.098   c0,3.117,0.316,6.159,0.917,9.098c0.521,2.545,1.294,4.993,2.224,7.362c0.681,1.734,1.426,3.436,2.308,5.058   c1.453,2.675,3.182,5.175,5.125,7.489c3.633,4.325,8.051,7.971,13.051,10.688c1.622,0.881,3.323,1.627,5.058,2.308   c2.369,0.929,4.817,1.703,7.362,2.224c2.939,0.601,5.981,0.917,9.098,0.917c24.932,0,45.143-20.211,45.143-45.143   C93.096,148.082,72.885,127.871,47.953,127.871z"
       id="path4" /></g><g
     id="g12"
     style="stroke:#000000;stroke-opacity:1;stroke-width:5;stroke-miterlimit:4;stroke-dasharray:none"><circle
       style="fill:#E56353;stroke:#000000;stroke-opacity:1;stroke-width:5;stroke-miterlimit:4;stroke-dasharray:none"
       cx="47.953"
       cy="300.894"
       r="45.143"
       id="circle8" /><path
       style="fill:#E56353;stroke:#000000;stroke-opacity:1;stroke-width:5;stroke-miterlimit:4;stroke-dasharray:none"
       d="M452.371,340.398H151.259c-10.345,0-18.732-8.386-18.732-18.732v-41.537   c0-10.345,8.386-18.732,18.732-18.732h301.112c10.345,0,18.732,8.386,18.732,18.732v41.537   C471.102,332.011,462.716,340.398,452.371,340.398z"
       id="path10" /></g><g
     id="g18"
     style="stroke:#000000;stroke-opacity:1;stroke-width:5;stroke-miterlimit:4;stroke-dasharray:none"><circle
       style="fill:#27A2DB;stroke:#000000;stroke-opacity:1;stroke-width:5;stroke-miterlimit:4;stroke-dasharray:none"
       cx="47.953"
       cy="428.769"
       r="45.143"
       id="circle14" /><path
       style="fill:#27A2DB;stroke:#000000;stroke-opacity:1;stroke-width:5;stroke-miterlimit:4;stroke-dasharray:none"
       d="M452.371,468.281H151.259c-10.345,0-18.732-8.386-18.732-18.732v-41.537   c0-10.345,8.386-18.732,18.732-18.732h301.112c10.345,0,18.732,8.386,18.732,18.732v41.537   C471.102,459.894,462.716,468.281,452.371,468.281z"
       id="path16" /></g><g
     id="g24"
     style="stroke:#000000;stroke-opacity:1;stroke-width:5;stroke-miterlimit:4;stroke-dasharray:none"><circle
       style="fill:#FCD462;stroke:#000000;stroke-opacity:1;stroke-width:5;stroke-miterlimit:4;stroke-dasharray:none"
       cx="47.953"
       cy="45.143"
       r="45.143"
       id="circle20" /><path
       style="fill:#FCD462;stroke:#000000;stroke-opacity:1;stroke-width:5;stroke-miterlimit:4;stroke-dasharray:none"
       d="M452.371,84.632H151.259c-10.345,0-18.732-8.386-18.732-18.732V24.363   c0-10.345,8.386-18.732,18.732-18.732h301.112c10.345,0,18.732,8.386,18.732,18.732V65.9   C471.102,76.245,462.716,84.632,452.371,84.632z"
       id="path22" /></g><g
     id="g26" /><g
     id="g28" /><g
     id="g30" /><g
     id="g32" /><g
     id="g34" /><g
     id="g36" /><g
     id="g38" /><g
     id="g40" /><g
     id="g42" /><g
     id="g44" /><g
     id="g46" /><g
     id="g48" /><g
     id="g50" /><g
     id="g52" /><g
     id="g54" /></svg>