<?xml version="1.0" encoding="UTF-8" standalone="no"?>
<svg
   xmlns:dc="http://purl.org/dc/elements/1.1/"
   xmlns:cc="http://creativecommons.org/ns#"
   xmlns:rdf="http://www.w3.org/1999/02/22-rdf-syntax-ns#"
   xmlns:svg="http://www.w3.org/2000/svg"
   xmlns="http://www.w3.org/2000/svg"
   xmlns:sodipodi="http://sodipodi.sourceforge.net/DTD/sodipodi-0.dtd"
   xmlns:inkscape="http://www.inkscape.org/namespaces/inkscape"
   enable-background="new 0 0 24 24"
   height="1000"
   viewBox="0 0 46.875 46.875"
   width="1000"
   version="1.1"
   id="svg12"
   sodipodi:docname="info.svg"
   inkscape:version="0.92.2 (5c3e80d, 2017-08-06)">
  <metadata
     id="metadata18">
    <rdf:RDF>
      <cc:Work
         rdf:about="">
        <dc:format>image/svg+xml</dc:format>
        <dc:type
           rdf:resource="http://purl.org/dc/dcmitype/StillImage" />
        <dc:title />
      </cc:Work>
    </rdf:RDF>
  </metadata>
  <defs
     id="defs16" />
  <sodipodi:namedview
     pagecolor="#ffffff"
     bordercolor="#666666"
     borderopacity="1"
     objecttolerance="10"
     gridtolerance="10"
     guidetolerance="10"
     inkscape:pageopacity="0"
     inkscape:pageshadow="2"
     inkscape:window-width="1682"
     inkscape:window-height="891"
     id="namedview14"
     showgrid="false"
     inkscape:zoom="0.22627417"
     inkscape:cx="410.68762"
     inkscape:cy="486.0805"
     inkscape:window-x="0"
     inkscape:window-y="0"
     inkscape:window-maximized="0"
     inkscape:current-layer="svg12"
     inkscape:snap-page="true"
     showguides="false" />
  <path
     d="M 40.750879,0.99229728 H 6.2277011 c -2.8309005,0 -5.1318237,2.30092292 -5.1318237,5.13182432 V 40.647298 c 0,2.830902 2.3009232,5.131825 5.1318237,5.131825 H 40.750879 c 2.830901,0 5.131824,-2.300923 5.131824,-5.131825 V 6.1241216 c 0,-2.8309014 -2.300923,-5.13182432 -5.131824,-5.13182432 z"
     id="path2"
     style="fill:#a9dbff;fill-opacity:1;stroke:#000000;stroke-width:0.46875;stroke-opacity:1;stroke-miterlimit:4;stroke-dasharray:none"
     inkscape:connector-curvature="0" />
  <circle
     cx="23.48929"
     cy="12.189004"
     r="1.8661177"
     id="circle4"
     style="fill:#000000;fill-opacity:1;stroke:#000000;stroke-width:0.35860813;stroke-miterlimit:4;stroke-dasharray:none;stroke-opacity:1" />
  <path
     d="m 23.489291,35.515475 c -0.772574,0 -1.399589,-0.627015 -1.399589,-1.399588 V 20.586534 h -1.866118 c -0.772574,0 -1.399588,-0.627015 -1.399588,-1.399588 0,-0.772575 0.627014,-1.399588 1.399588,-1.399588 h 3.265707 c 0.772572,0 1.399587,0.627013 1.399587,1.399588 v 14.928941 c 0,0.772573 -0.627015,1.399588 -1.399587,1.399588 z"
     id="path6"
     style="fill:#000000;stroke:none;stroke-width:0.35864449;stroke-miterlimit:4;stroke-dasharray:none;stroke-opacity:1"
     inkscape:connector-curvature="0" />
  <path
     d="M 40.750879,45.779123 H 6.2277011 c -2.8309005,0 -5.1318237,-2.300923 -5.1318237,-5.131825 V 6.1241216 c 0,-2.8309014 2.3009232,-5.13182432 5.1318237,-5.13182432 H 40.750879 c 2.830901,0 5.131824,2.30092292 5.131824,5.13182432 V 40.647298 c 0,2.830902 -2.300923,5.131825 -5.131824,5.131825 z M 6.2277011,3.7914735 c -1.285755,0 -2.332647,1.0468918 -2.332647,2.3326481 V 40.647298 c 0,1.285756 1.046892,2.332648 2.332647,2.332648 H 40.750879 c 1.285755,0 2.332647,-1.046892 2.332647,-2.332648 V 6.1241216 c 0,-1.2857563 -1.046892,-2.3326481 -2.332647,-2.3326481 z"
     id="path8"
     inkscape:connector-curvature="0"
     style="fill:none;fill-opacity:1;stroke:none;stroke-width:0.18362598;stroke-miterlimit:4;stroke-dasharray:none;stroke-opacity:1" />
  <path
     d="m 27.688054,35.515475 h -8.397528 c -0.772573,0 -1.399588,-0.627015 -1.399588,-1.399588 0,-0.772572 0.627015,-1.39959 1.399588,-1.39959 h 8.397528 c 0.772573,0 1.399588,0.627018 1.399588,1.39959 0,0.772573 -0.627015,1.399588 -1.399588,1.399588 z"
     id="path10"
     style="fill:#000000;fill-opacity:1;stroke:#000000;stroke-width:0.35864449;stroke-miterlimit:4;stroke-dasharray:none;stroke-opacity:1"
     inkscape:connector-curvature="0" />
</svg>
